<svg xmlns="http://www.w3.org/2000/svg" xmlns:xlink="http://www.w3.org/1999/xlink" width="57" height="16"><defs><path id="a" d="M.148.024h15.767v8.447H.148z"/></defs><g fill="none" fill-rule="evenodd"><path fill="#000" d="M31.627 1.69l-3.584 7.764h-.364V0h-5.09v16h4.32a2.91 2.91 0 0 0 2.641-1.69l3.584-7.764h.364V16h5.09V0h-4.32c-1.135 0-2.166.66-2.641 1.69m-19.221.413l-2.108 7.352h-.36L7.83 2.103A2.895 2.895 0 0 0 5.052 0H0v16h5.058V6.545h.362L8.31 16h3.615l2.89-9.455h.361V16h5.06V0h-5.053c-1.287 0-2.42.858-2.777 2.103"/><g transform="translate(40.47 7.059)"><mask id="b" fill="#fff"><use xlink:href="#a"/></mask><path fill="#000" d="M.148.024v8.447h5.108V3.544h5.494c2.387 0 4.411-1.47 5.165-3.52H.148z" mask="url(#b)"/></g><path fill="#000" d="M50.63 0h-11.1c.674 3.748 3.882 6.588 7.743 6.588h8.62A5.67 5.67 0 0 0 56 5.49C56 2.458 53.595 0 50.63 0"/></g></svg>